<svg width="12" height="13" viewBox="0 0 12 13" fill="none" xmlns="http://www.w3.org/2000/svg">
<path d="M5.76664 5.00001H6.89998V3.30001H8.59998V2.16667H6.89998V0.466675H5.76664V2.16667H4.06664V3.30001H5.76664V5.00001ZM3.49998 10.1C2.87664 10.1 2.37231 10.61 2.37231 11.2333C2.37231 11.8567 2.87664 12.3667 3.49998 12.3667C4.12331 12.3667 4.63331 11.8567 4.63331 11.2333C4.63331 10.61 4.12331 10.1 3.49998 10.1ZM9.16664 10.1C8.54331 10.1 8.03898 10.61 8.03898 11.2333C8.03898 11.8567 8.54331 12.3667 9.16664 12.3667C9.78998 12.3667 10.3 11.8567 10.3 11.2333C10.3 10.61 9.78998 10.1 9.16664 10.1ZM3.59631 8.25834L3.61331 8.19034L4.12331 7.26668H8.34498C8.76998 7.26668 9.14398 7.03434 9.33664 6.68301L11.524 2.71068L10.538 2.16667H10.5323L9.90898 3.30001L8.34498 6.13334H4.36698L4.29331 5.98034L3.02398 3.30001L2.48564 2.16667L1.95298 1.03334H0.0999756V2.16667H1.23331L3.27331 6.46768L2.50831 7.85601C2.41764 8.01468 2.36664 8.20168 2.36664 8.40001C2.36664 9.02334 2.87664 9.53334 3.49998 9.53334H10.3V8.40001H3.73798C3.66431 8.40001 3.59631 8.33768 3.59631 8.25834Z" fill="white"/>
</svg>
